# xmcd
#
# Track frame offsets: 
#        150
#        12091
#        34378
#        49473
#        57439
#        71934
#        92789
#        110428
#        119803
#        134204
#        147785
#
# Disc length: 2161 seconds
#
# Revision: 2
# Processed by: cddbd v1.5.1PL0 Copyright (c) Steve Scherf et al.
# Submitted via: ExactAudioCopy v0.90b4
#
DISCID=b3086f0b
DTITLE=Tracy Chapman - Tracy Chapman
DYEAR=1988
DGENRE=Rock
TTITLE0=Talkin' Bout A Revolution
TTITLE1=Fast Car
TTITLE2=Across The Lines
TTITLE3=Behind The Wall
TTITLE4=Baby Can I Hold You
TTITLE5=Mountains O' Things
TTITLE6=She's Got Her Ticket
TTITLE7=Why?
TTITLE8=For My Lover
TTITLE9=If Not Now...
TTITLE10=For You
EXTD=ID3G:   0
EXTT0=
EXTT1=
EXTT2=
EXTT3=
EXTT4=
EXTT5=
EXTT6=
EXTT7=
EXTT8=
EXTT9=
EXTT10=
PLAYORDER=
